<svg width="32" height="32" viewBox="0 0 32 32" fill="none" xmlns="http://www.w3.org/2000/svg">
<rect width="32" height="32" rx="7" fill="black" fill-opacity="0.5"/>
<path fill-rule="evenodd" clip-rule="evenodd" d="M11.8345 7.71667H20.1678C21.5776 7.74854 22.6957 8.91515 22.6678 10.325V22.5583C22.6713 23.2382 22.277 23.8573 21.6595 24.1417C21.449 24.2332 21.2223 24.2814 20.9928 24.2833C20.5875 24.2809 20.1979 24.1262 19.9012 23.85L16.0012 20.3L12.1012 23.85C11.6206 24.2788 10.9361 24.3923 10.3428 24.1417C9.72529 23.8573 9.33101 23.2382 9.3345 22.5583V10.325C9.30658 8.91515 10.4247 7.74854 11.8345 7.71667ZM17.1093 19.0667L21.0009 22.6167V10.325C21.0249 9.83693 20.655 9.41895 20.1676 9.38333H11.8343C11.3469 9.41895 10.977 9.83693 11.0009 10.325V22.5583L14.8593 19.0667C15.4961 18.484 16.4724 18.484 17.1093 19.0667Z" fill="white"/>
</svg>
