<svg width="24" height="24" viewBox="0 0 24 24" fill="none" xmlns="http://www.w3.org/2000/svg">
<path d="M11.4087 3.43358C11.7607 3.1755 12.2393 3.1755 12.5913 3.43358L14.4943 4.8289C14.6478 4.94146 14.8302 5.00787 15.0202 5.02031L17.3748 5.17463C17.8103 5.20317 18.177 5.51086 18.2808 5.93481L18.8416 8.22687C18.8868 8.41178 18.9839 8.57993 19.1214 8.71156L20.826 10.3433C21.1413 10.6451 21.2244 11.1165 21.0314 11.508L19.9877 13.6243C19.9035 13.795 19.8698 13.9862 19.8905 14.1755L20.1474 16.5211C20.1949 16.955 19.9556 17.3695 19.5561 17.5453L17.3962 18.4956C17.222 18.5723 17.0733 18.6971 16.9675 18.8554L15.6566 20.8174C15.4141 21.1803 14.9643 21.344 14.5452 21.2219L12.2798 20.5616C12.0971 20.5083 11.9029 20.5083 11.7202 20.5616L9.45476 21.2219C9.03574 21.344 8.58592 21.1803 8.34345 20.8174L7.03249 18.8554C6.92673 18.6971 6.778 18.5723 6.60376 18.4956L4.44391 17.5453C4.04442 17.3695 3.80507 16.955 3.85259 16.5211L4.1095 14.1755C4.13022 13.9862 4.09651 13.795 4.01231 13.6243L2.96864 11.508C2.7756 11.1165 2.85872 10.6451 3.174 10.3433L4.87856 8.71156C5.01607 8.57993 5.11315 8.41178 5.1584 8.22687L5.71924 5.93481C5.82298 5.51086 6.18967 5.20317 6.62519 5.17463L8.97982 5.02031C9.16977 5.00787 9.35223 4.94146 9.50574 4.8289L11.4087 3.43358Z" fill="#3B5BFF"/>
<path d="M9 12.5L11.3438 14.5L15.5 10.5" stroke="white" stroke-linecap="round" stroke-linejoin="round"/>
</svg>
