<svg width="36" height="36" viewBox="0 0 36 36" fill="none" xmlns="http://www.w3.org/2000/svg">
<rect width="36" height="36" rx="16" fill="#E7E1FF"/>
<path d="M13 26H23M15 22V26M21 22V26M14 18L17 15L19 17L22 14M9 11C9 10.7348 9.10536 10.4804 9.29289 10.2929C9.48043 10.1054 9.73478 10 10 10H26C26.2652 10 26.5196 10.1054 26.7071 10.2929C26.8946 10.4804 27 10.7348 27 11V21C27 21.2652 26.8946 21.5196 26.7071 21.7071C26.5196 21.8946 26.2652 22 26 22H10C9.73478 22 9.48043 21.8946 9.29289 21.7071C9.10536 21.5196 9 21.2652 9 21V11Z" stroke="#6C4BEE" stroke-width="1.5" stroke-linecap="round" stroke-linejoin="round"/>
</svg>
