<svg width="36" height="36" viewBox="0 0 36 36" fill="none" xmlns="http://www.w3.org/2000/svg">
<rect width="36" height="36" rx="16" fill="#E7E1FF"/>
<path d="M15 16H15.01M21 16H21.01M15.5 21C15.8259 21.3326 16.2148 21.5968 16.6441 21.7772C17.0734 21.9576 17.5344 22.0505 18 22.0505C18.4656 22.0505 18.9266 21.9576 19.3559 21.7772C19.7852 21.5968 20.1741 21.3326 20.5 21M9 18C9 19.1819 9.23279 20.3522 9.68508 21.4442C10.1374 22.5361 10.8003 23.5282 11.636 24.364C12.4718 25.1997 13.4639 25.8626 14.5558 26.3149C15.6478 26.7672 16.8181 27 18 27C19.1819 27 20.3522 26.7672 21.4442 26.3149C22.5361 25.8626 23.5282 25.1997 24.364 24.364C25.1997 23.5282 25.8626 22.5361 26.3149 21.4442C26.7672 20.3522 27 19.1819 27 18C27 16.8181 26.7672 15.6478 26.3149 14.5558C25.8626 13.4639 25.1997 12.4718 24.364 11.636C23.5282 10.8003 22.5361 10.1374 21.4442 9.68508C20.3522 9.23279 19.1819 9 18 9C16.8181 9 15.6478 9.23279 14.5558 9.68508C13.4639 10.1374 12.4718 10.8003 11.636 11.636C10.8003 12.4718 10.1374 13.4639 9.68508 14.5558C9.23279 15.6478 9 16.8181 9 18Z" stroke="#6C4BEE" stroke-width="1.5" stroke-linecap="round" stroke-linejoin="round"/>
</svg>
