<svg width="36" height="36" viewBox="0 0 36 36" fill="none" xmlns="http://www.w3.org/2000/svg">
<rect width="36" height="36" rx="16" fill="#E7E1FF"/>
<path d="M14 15H22M14 19H20M17.012 25.193L14 27V24H12C11.2044 24 10.4413 23.6839 9.87868 23.1213C9.31607 22.5587 9 21.7956 9 21V13C9 12.2044 9.31607 11.4413 9.87868 10.8787C10.4413 10.3161 11.2044 10 12 10H24C24.7956 10 25.5587 10.3161 26.1213 10.8787C26.6839 11.4413 27 12.2044 27 13V19M26 27L28 25L26 23M23 23L21 25L23 27" stroke="#6C4BEE" stroke-width="1.5" stroke-linecap="round" stroke-linejoin="round"/>
</svg>
