<svg width="24" height="24" viewBox="0 0 24 24" fill="none" xmlns="http://www.w3.org/2000/svg">
<path d="M20.5 5.75L21.2071 6.45711L21.9142 5.75L21.2071 5.04289L20.5 5.75ZM4.5 10.75C4.5 11.3023 4.94771 11.75 5.5 11.75C6.05229 11.75 6.5 11.3023 6.5 10.75H4.5ZM17.2071 10.4571L21.2071 6.45711L19.7929 5.04289L15.7929 9.04289L17.2071 10.4571ZM21.2071 5.04289L17.2071 1.04289L15.7929 2.45711L19.7929 6.45711L21.2071 5.04289ZM20.5 4.75L9.5 4.75V6.75L20.5 6.75V4.75ZM4.5 9.75V10.75H6.5V9.75H4.5ZM9.5 4.75C6.73858 4.75 4.5 6.98858 4.5 9.75H6.5C6.5 8.09315 7.84315 6.75 9.5 6.75V4.75Z" fill="#888888"/>
<path d="M4.5 16.9995L3.79289 16.2924L3.08579 16.9995L3.79289 17.7066L4.5 16.9995ZM20.5 11.9995C20.5 11.4472 20.0523 10.9995 19.5 10.9995C18.9477 10.9995 18.5 11.4472 18.5 11.9995H20.5ZM7.79289 12.2924L3.79289 16.2924L5.20711 17.7066L9.20711 13.7066L7.79289 12.2924ZM3.79289 17.7066L7.79289 21.7066L9.20711 20.2924L5.20711 16.2924L3.79289 17.7066ZM4.5 17.9995H15.5V15.9995H4.5V17.9995ZM20.5 12.9995V11.9995H18.5V12.9995H20.5ZM15.5 17.9995C18.2614 17.9995 20.5 15.7609 20.5 12.9995H18.5C18.5 14.6564 17.1569 15.9995 15.5 15.9995V17.9995Z" fill="#888888"/>
</svg>
